<?xml version="1.0" encoding="UTF-8" standalone="no"?>
<svg
   xmlns:dc="http://purl.org/dc/elements/1.1/"
   xmlns:cc="http://creativecommons.org/ns#"
   xmlns:rdf="http://www.w3.org/1999/02/22-rdf-syntax-ns#"
   xmlns:svg="http://www.w3.org/2000/svg"
   xmlns="http://www.w3.org/2000/svg"
   xmlns:sodipodi="http://sodipodi.sourceforge.net/DTD/sodipodi-0.dtd"
   xmlns:inkscape="http://www.inkscape.org/namespaces/inkscape"
   version="1.1"
   x="0px"
   y="0px"
   viewBox="0 0 30 30"
   id="svg901"
   sodipodi:docname="addresse.svg"
   width="30"
   height="30"
   inkscape:version="1.0.1 (3bc2e813f5, 2020-09-07)">
  <metadata
     id="metadata907">
    <rdf:RDF>
      <cc:Work
         rdf:about="">
        <dc:format>image/svg+xml</dc:format>
        <dc:type
           rdf:resource="http://purl.org/dc/dcmitype/StillImage" />
        <dc:title />
      </cc:Work>
    </rdf:RDF>
  </metadata>
  <defs
     id="defs905" />
  <sodipodi:namedview
     pagecolor="#ffffff"
     bordercolor="#666666"
     borderopacity="1"
     objecttolerance="10"
     gridtolerance="10"
     guidetolerance="10"
     inkscape:pageopacity="0"
     inkscape:pageshadow="2"
     inkscape:window-width="1600"
     inkscape:window-height="836"
     id="namedview903"
     showgrid="false"
     inkscape:zoom="4.216"
     inkscape:cx="50"
     inkscape:cy="62.5"
     inkscape:window-x="0"
     inkscape:window-y="0"
     inkscape:window-maximized="1"
     inkscape:current-layer="svg901"
     inkscape:document-rotation="0" />
  <g
     transform="matrix(0.31420729,0,0,0.31420729,-0.71036447,-299.92579)"
     id="g895"
     style="stroke-width:3.18262;fill:#808080;fill-opacity:1">
    <path
       style="color:#000000;font-style:normal;font-variant:normal;font-weight:normal;font-stretch:normal;font-size:medium;line-height:normal;font-family:Sans;-inkscape-font-specification:Sans;text-indent:0;text-align:start;text-decoration:none;text-decoration-line:none;letter-spacing:normal;word-spacing:normal;text-transform:none;writing-mode:lr-tb;direction:ltr;baseline-shift:baseline;text-anchor:start;display:inline;overflow:visible;visibility:visible;opacity:1;fill:#808080;fill-opacity:1;stroke:none;stroke-width:2.88466;marker:none;enable-background:accumulate"
       d="M 49.96875,6 C 36.330513,5.9115 23.769497,14.98557 20.0625,28.75 c -0.837007,3.10789 -1.045702,6.16466 -1.03125,9.09375 0.05129,10.39485 5.635165,19.37545 11.9375,28.09375 6.302335,8.7183 13.40257,17.2983 17.1875,26.6875 a 2.0002,2.0002 0 0 0 3.6875,0 C 55.62868,83.2358 62.728915,74.6558 69.03125,65.9375 75.333585,57.2192 80.91746,48.2386 80.96875,37.84375 80.9832,34.91466 80.774507,31.85789 79.9375,28.75 76.230503,14.98557 63.669487,5.91148 50.03125,6 c -0.02096,1.4e-4 -0.04153,-1.8e-4 -0.0625,0 z m 0,4 a 2.0002,2.0002 0 0 0 0.0625,0 c 11.86839,-0.10156 22.793473,7.75908 26.03125,19.78125 0.710385,2.63773 0.919638,5.34897 0.90625,8.0625 -0.04418,8.95385 -4.998399,17.1883 -11.1875,25.75 -5.399719,7.4696 -11.536359,15.1533 -15.78125,23.75 -4.244891,-8.5967 -10.381531,-16.2804 -15.78125,-23.75 -6.189101,-8.5617 -11.14332,-16.79615 -11.1875,-25.75 -0.01339,-2.71353 0.195865,-5.42477 0.90625,-8.0625 C 27.175277,17.75908 38.10036,9.89844 49.96875,10 Z M 49.9375,23.875 c -7.063573,-0.009 -12.852712,5.75772 -12.84375,12.8125 0.009,7.05478 5.811426,12.8035 12.875,12.8125 7.063573,0.01 12.821462,-5.72647 12.8125,-12.78125 C 62.77225,29.66397 57.001074,23.88401 49.9375,23.875 Z m 0,4 c 4.900452,0.006 8.837533,3.9496 8.84375,8.84375 0.0062,4.89416 -3.943298,8.78751 -8.84375,8.78125 -4.900452,-0.006 -8.837533,-3.91835 -8.84375,-8.8125 -0.0062,-4.89416 3.943298,-8.81876 8.84375,-8.8125 z"
       transform="translate(0,952.36218)"
       id="path893" />
  </g>
</svg>
