<?xml version="1.0" encoding="UTF-8" standalone="no"?>
<svg
   xmlns:dc="http://purl.org/dc/elements/1.1/"
   xmlns:cc="http://creativecommons.org/ns#"
   xmlns:rdf="http://www.w3.org/1999/02/22-rdf-syntax-ns#"
   xmlns:svg="http://www.w3.org/2000/svg"
   xmlns="http://www.w3.org/2000/svg"
   xmlns:sodipodi="http://sodipodi.sourceforge.net/DTD/sodipodi-0.dtd"
   xmlns:inkscape="http://www.inkscape.org/namespaces/inkscape"
   version="1.1"
   x="0px"
   y="0px"
   viewBox="0 0 30 30"
   enable-background="new 0 0 100 100"
   xml:space="preserve"
   id="svg12"
   sodipodi:docname="arrow-r.svg"
   width="30"
   height="30"
   inkscape:version="1.0.1 (3bc2e813f5, 2020-09-07)"><metadata
     id="metadata18"><rdf:RDF><cc:Work
         rdf:about=""><dc:format>image/svg+xml</dc:format><dc:type
           rdf:resource="http://purl.org/dc/dcmitype/StillImage" /><dc:title /></cc:Work></rdf:RDF></metadata><defs
     id="defs16" /><sodipodi:namedview
     pagecolor="#ffffff"
     bordercolor="#666666"
     borderopacity="1"
     objecttolerance="10"
     gridtolerance="10"
     guidetolerance="10"
     inkscape:pageopacity="0"
     inkscape:pageshadow="2"
     inkscape:window-width="1600"
     inkscape:window-height="836"
     id="namedview14"
     showgrid="false"
     inkscape:pagecheckerboard="true"
     inkscape:zoom="4.216"
     inkscape:cx="50"
     inkscape:cy="62.5"
     inkscape:window-x="0"
     inkscape:window-y="0"
     inkscape:window-maximized="1"
     inkscape:current-layer="svg12"
     inkscape:document-rotation="0" /><g
     id="g833"><path
       d="m 12.904822,7.2908322 c -0.336695,-0.3366945 -0.882225,-0.3366945 -1.218919,0 -0.336695,0.3366945 -0.336695,0.8822249 0,1.2189194 l 6.491811,6.4906744 -6.491811,6.490959 c -0.336695,0.336694 -0.336695,0.882225 0,1.218919 0.168489,0.16849 0.388974,0.252592 0.609459,0.252592 0.220486,0 0.440971,-0.0841 0.60946,-0.252592 l 7.101271,-7.100418 c 0.16167,-0.16167 0.252592,-0.380451 0.252592,-0.60946 0,-0.229009 -0.09092,-0.447789 -0.252592,-0.609459 z"
       id="path2"
       style="stroke-width:0.999997;stroke:#808080;stroke-opacity:1;fill:#808080;fill-opacity:1" /><path
       d="m 24.097002,6.0173598 c 2.400618,2.4293148 3.710459,5.6490802 3.688581,9.0640432 -0.02188,3.414964 -1.372066,6.617113 -3.801381,9.016878 -2.409141,2.377888 -5.599357,3.687729 -8.985055,3.687729 -3.444513,0 -6.6750751,-1.350188 -9.0961502,-3.802233 C 3.5023791,21.554462 2.192538,18.334696 2.2144161,14.919733 2.2362941,11.50477 3.5864817,8.3017681 6.0157966,5.9020029 8.4249381,3.5238315 11.615154,2.2139904 14.999147,2.2139904 c 3.446218,0 6.67678,1.35104 9.097855,3.8033694 z m 1.964762,9.0529622 c 0.01847,-2.954672 -1.11436,-5.7400019 -3.190216,-7.8419985 -2.094325,-2.1221699 -4.890737,-3.290514 -7.872117,-3.290514 -2.927679,0 -5.6885743,1.133112 -7.7712501,3.1910684 -2.102849,2.0758566 -3.2711931,4.8469801 -3.2896616,7.8013681 -0.018468,2.954672 1.1143594,5.740002 3.190216,7.841999 2.0943251,2.121317 4.8907367,3.289661 7.8704117,3.289661 2.929384,0 5.688575,-1.133112 7.772955,-3.191068 2.102565,-2.075572 3.270909,-4.845844 3.289662,-7.800516 z"
       id="path4"
       style="stroke-width:0.999997;stroke:#808080;stroke-opacity:1;fill:#808080;fill-opacity:1" /></g></svg>
