<?xml version="1.0" encoding="UTF-8" standalone="no"?>
<svg
   xmlns:dc="http://purl.org/dc/elements/1.1/"
   xmlns:cc="http://creativecommons.org/ns#"
   xmlns:rdf="http://www.w3.org/1999/02/22-rdf-syntax-ns#"
   xmlns:svg="http://www.w3.org/2000/svg"
   xmlns="http://www.w3.org/2000/svg"
   xmlns:sodipodi="http://sodipodi.sourceforge.net/DTD/sodipodi-0.dtd"
   xmlns:inkscape="http://www.inkscape.org/namespaces/inkscape"
   enable-background="new 0 0 512 512"
   height="512px"
   id="Layer_1"
   version="1.1"
   viewBox="0 0 512 512"
   width="512px"
   xml:space="preserve"
   sodipodi:docname="facebook.svg"
   inkscape:version="1.0.1 (3bc2e813f5, 2020-09-07)"><metadata
     id="metadata1064"><rdf:RDF><cc:Work
         rdf:about=""><dc:format>image/svg+xml</dc:format><dc:type
           rdf:resource="http://purl.org/dc/dcmitype/StillImage" /><dc:title /></cc:Work></rdf:RDF></metadata><defs
     id="defs1062" /><sodipodi:namedview
     pagecolor="#ffffff"
     bordercolor="#666666"
     borderopacity="1"
     objecttolerance="10"
     gridtolerance="10"
     guidetolerance="10"
     inkscape:pageopacity="0"
     inkscape:pageshadow="2"
     inkscape:window-width="1600"
     inkscape:window-height="836"
     id="namedview1060"
     showgrid="false"
     inkscape:zoom="1.1933594"
     inkscape:cx="256"
     inkscape:cy="179.95833"
     inkscape:window-x="0"
     inkscape:window-y="0"
     inkscape:window-maximized="1"
     inkscape:current-layer="Layer_1"
     inkscape:pagecheckerboard="true"
     inkscape:document-rotation="0" /><path
     d="m 255.99955,23.126183 c -128.60391,0 -232.87427,104.232167 -232.87427,232.873367 0,128.6039 104.27036,232.87427 232.87427,232.87427 9.8544,0 19.5578,-0.60675 29.10928,-1.81933 V 386.95312 c 0,-10.65036 -8.71732,-19.36768 -19.40589,-19.36768 -3.22203,0 -6.48136,0 -9.70339,0 -5.68541,0 -9.7034,-4.01799 -9.7034,-9.7034 0,-12.96274 0,-25.88725 0,-38.84998 0,-5.68541 4.01799,-9.7034 9.7034,-9.7034 3.22203,0 6.48136,0 9.70339,0 10.68857,0 19.40589,-8.71733 19.40589,-19.36858 v -48.55247 c 0,-34.11244 24.06792,-58.21857 58.21857,-58.21857 22.62792,0 45.29404,0 67.92196,0 5.68541,0 9.7034,4.01707 9.7034,9.70249 0,12.96273 0,25.88816 0,38.81268 0,5.72362 -4.01799,9.7034 -9.7034,9.7034 -16.18476,0 -32.33132,0 -48.51517,0 -10.68856,0 -19.40588,8.71732 -19.40588,19.40588 0,9.7407 0,19.44409 0,29.14659 0,10.68856 8.71732,19.36858 19.40588,19.36858 3.22203,0 6.48136,0 9.7034,0 5.68541,0 9.7034,4.01799 9.7034,9.7034 0,12.96273 0,25.88724 0,38.84998 0,5.68541 -4.01799,9.7034 -9.7034,9.7034 -3.22204,0 -6.48137,0 -9.7034,0 -10.68856,0 -19.40588,8.71731 -19.40588,19.36768 V 471.9313 C 428.68491,437.36403 488.87472,353.71305 488.87472,255.99955 488.87381,127.35835 384.60345,23.126183 255.99955,23.126183 Z M 362.73328,440.88898 v -53.93586 c 3.22204,0 6.48137,0 9.7034,0 16.41218,0 29.10928,-12.69711 29.10928,-29.07108 0,-12.96274 0,-25.88725 0,-38.84998 0,-16.37397 -12.6971,-29.07198 -29.10928,-29.07198 -3.22203,0 -6.48136,0 -9.7034,0 0,-9.7025 0,-19.40589 0,-29.14659 16.18476,0 32.33132,0 48.51517,0 16.41218,0 29.10928,-12.69711 29.10928,-29.10929 0,-12.92452 0,-25.84995 0,-38.81268 0,-16.41127 -12.6971,-29.07108 -29.10928,-29.07108 -22.62792,0 -45.29404,0 -67.92196,0 -44.83922,0 -77.62446,32.74795 -77.62446,77.58716 v 48.55248 c -3.22203,0 -6.48136,0 -9.70339,0 -16.41218,0 -29.10929,12.69801 -29.10929,29.07198 0,12.96273 0,25.88724 0,38.84998 0,16.37397 12.69711,29.07108 29.10929,29.07108 3.22203,0 6.48136,0 9.70339,0 v 82.28647 c -3.22203,0.15193 -6.48136,0.22742 -9.70339,0.22742 -117.91443,0 -213.467475,-95.59033 -213.467475,-213.46747 0,-117.91534 95.553045,-213.505677 213.468385,-213.505677 117.87713,0 213.46838,95.590337 213.46838,213.505677 0,77.05591 -41.42797,147.17654 -106.73465,184.88944 z"
     id="path1057"
     style="fill:#808080;fill-opacity:1;stroke:#808080;stroke-width:24;stroke-miterlimit:4;stroke-dasharray:none;stroke-opacity:1" /></svg>
