<?xml version="1.0" encoding="UTF-8" standalone="no"?>
<svg
   xmlns:dc="http://purl.org/dc/elements/1.1/"
   xmlns:cc="http://creativecommons.org/ns#"
   xmlns:rdf="http://www.w3.org/1999/02/22-rdf-syntax-ns#"
   xmlns:svg="http://www.w3.org/2000/svg"
   xmlns="http://www.w3.org/2000/svg"
   xmlns:sodipodi="http://sodipodi.sourceforge.net/DTD/sodipodi-0.dtd"
   xmlns:inkscape="http://www.inkscape.org/namespaces/inkscape"
   width="400"
   height="300"
   viewBox="0 0 105.83333 79.37505"
   version="1.1"
   id="svg8"
   sodipodi:docname="grid-lines.svg"
   inkscape:version="1.0.1 (3bc2e813f5, 2020-09-07)">
  <defs
     id="defs2" />
  <sodipodi:namedview
     id="base"
     pagecolor="#ffffff"
     bordercolor="#666666"
     borderopacity="1.0"
     inkscape:pageopacity="0.0"
     inkscape:pageshadow="2"
     inkscape:zoom="0.98994949"
     inkscape:cx="218.48601"
     inkscape:cy="224.83322"
     inkscape:document-units="mm"
     inkscape:current-layer="layer1"
     inkscape:document-rotation="0"
     showgrid="false"
     inkscape:pagecheckerboard="true"
     showborder="true"
     inkscape:object-paths="true"
     inkscape:snap-nodes="false"
     inkscape:window-width="1600"
     inkscape:window-height="836"
     inkscape:window-x="0"
     inkscape:window-y="0"
     inkscape:window-maximized="1"
     units="px" />
  <metadata
     id="metadata5">
    <rdf:RDF>
      <cc:Work
         rdf:about="">
        <dc:format>image/svg+xml</dc:format>
        <dc:type
           rdf:resource="http://purl.org/dc/dcmitype/StillImage" />
        <dc:title />
      </cc:Work>
    </rdf:RDF>
  </metadata>
  <g
     inkscape:label="Calque 1"
     inkscape:groupmode="layer"
     id="layer1">
    <g
       id="g941"
       transform="translate(-5.6243505)">
      <path
         id="path1144"
         style="fill:none;stroke:#000000;stroke-width:1.32292;stroke-linecap:butt;stroke-linejoin:miter;stroke-miterlimit:4;stroke-dasharray:none;stroke-opacity:1"
         d="m 15.717317,2.136612 v 75.101777 z m 13.897084,0 v 75.101777 z m 13.897088,0 v 75.101777 z m 13.897087,0 v 75.101777 z m 13.896934,0 v 75.101777 z m 13.897087,0 v 75.101777 z" />
      <path
         id="path1163"
         style="fill:none;stroke:#000000;stroke-width:1.32292;stroke-linecap:butt;stroke-linejoin:miter;stroke-miterlimit:4;stroke-dasharray:none;stroke-opacity:1"
         d="M 89.452676,4.9448601 H 11.467238 Z m 0,13.8970869 H 11.467238 Z m 0,13.897087 H 11.467238 Z m 0,13.897087 H 11.467238 Z m 0,13.896935 H 11.467238 Z m 0,13.897085 H 11.467238 Z" />
      <path
         style="opacity:0.550633;fill:#050000;fill-opacity:1;stroke:none;stroke-width:1.32292;stroke-linecap:round;stroke-miterlimit:4;stroke-dasharray:none;stroke-dashoffset:0;stroke-opacity:1;paint-order:markers stroke fill;stop-color:#000000"
         d="M 15.986321,11.878637 V 5.2933852 h 6.696866 6.696866 v 6.5852518 6.585251 h -6.696866 -6.696866 z"
         id="path1165" />
      <path
         style="opacity:0.550633;fill:#050000;fill-opacity:1;stroke:none;stroke-width:1.32292;stroke-linecap:round;stroke-miterlimit:4;stroke-dasharray:none;stroke-dashoffset:0;stroke-opacity:1;paint-order:markers stroke fill;stop-color:#000000"
         d="M 29.82651,11.878637 V 5.2933852 h 6.696866 6.696865 v 6.5852518 6.585251 H 36.523376 29.82651 Z"
         id="path1167" />
      <path
         style="opacity:0.550633;fill:#050000;fill-opacity:1;stroke:none;stroke-width:1.32292;stroke-linecap:round;stroke-miterlimit:4;stroke-dasharray:none;stroke-dashoffset:0;stroke-opacity:1;paint-order:markers stroke fill;stop-color:#000000"
         d="M 43.889928,11.878637 V 5.2933852 h 6.585251 6.585252 v 6.5852518 6.585251 h -6.585252 -6.585251 z"
         id="path1169" />
      <path
         style="opacity:0.550633;fill:#050000;fill-opacity:1;stroke:none;stroke-width:1.32292;stroke-linecap:round;stroke-miterlimit:4;stroke-dasharray:none;stroke-dashoffset:0;stroke-opacity:1;paint-order:markers stroke fill;stop-color:#000000"
         d="M 57.730117,11.878637 V 5.2933852 h 6.585251 6.585252 v 6.5852518 6.585251 h -6.585252 -6.585251 z"
         id="path1171" />
      <path
         style="opacity:0.550633;fill:#050000;fill-opacity:1;stroke:none;stroke-width:1.32292;stroke-linecap:round;stroke-miterlimit:4;stroke-dasharray:none;stroke-dashoffset:0;stroke-opacity:1;paint-order:markers stroke fill;stop-color:#000000"
         d="M 71.570307,11.878637 V 5.2933852 h 6.696865 6.696866 v 6.5852518 6.585251 h -6.696866 -6.696865 z"
         id="path1173" />
      <path
         style="opacity:0.550633;fill:#00ff00;fill-opacity:1;stroke:none;stroke-width:1.32292;stroke-linecap:round;stroke-miterlimit:4;stroke-dasharray:none;stroke-dashoffset:0;stroke-opacity:1;paint-order:markers stroke fill;stop-color:#000000"
         d="m 43.889928,53.622433 v -6.585251 h 6.585251 6.585252 v 6.585251 6.585251 h -6.585252 -6.585251 z"
         id="path1215" />
      <path
         style="opacity:0.550633;fill:#00ff00;fill-opacity:1;stroke:none;stroke-width:1.32292;stroke-linecap:round;stroke-miterlimit:4;stroke-dasharray:none;stroke-dashoffset:0;stroke-opacity:1;paint-order:markers stroke fill;stop-color:#000000"
         d="m 57.730117,53.622433 v -6.585251 h 6.585251 6.585252 v 6.585251 6.585251 h -6.585252 -6.585251 z"
         id="path1217" />
      <path
         style="opacity:0.550633;fill:#00ff00;fill-opacity:1;stroke:none;stroke-width:1.32292;stroke-linecap:round;stroke-miterlimit:4;stroke-dasharray:none;stroke-dashoffset:0;stroke-opacity:1;paint-order:markers stroke fill;stop-color:#000000"
         d="m 71.570307,53.622433 v -6.585251 h 6.696865 6.696866 v 6.585251 6.585251 h -6.696866 -6.696865 z"
         id="path1219" />
      <path
         style="opacity:0.550633;fill:#00ff00;fill-opacity:1;stroke:none;stroke-width:1.32292;stroke-linecap:round;stroke-miterlimit:4;stroke-dasharray:none;stroke-dashoffset:0;stroke-opacity:1;paint-order:markers stroke fill;stop-color:#000000"
         d="m 71.570307,67.462622 v -6.585251 h 6.696865 6.696866 v 6.585251 6.585251 h -6.696866 -6.696865 z"
         id="path1221" />
      <path
         style="opacity:0.550633;fill:#00ff00;fill-opacity:1;stroke:none;stroke-width:1.32292;stroke-linecap:round;stroke-miterlimit:4;stroke-dasharray:none;stroke-dashoffset:0;stroke-opacity:1;paint-order:markers stroke fill;stop-color:#000000"
         d="m 57.730117,67.462622 v -6.585251 h 6.585251 6.585252 v 6.585251 6.585251 h -6.585252 -6.585251 z"
         id="path1223" />
      <path
         style="opacity:0.550633;fill:#00ff00;fill-opacity:1;stroke:none;stroke-width:1.32292;stroke-linecap:round;stroke-miterlimit:4;stroke-dasharray:none;stroke-dashoffset:0;stroke-opacity:1;paint-order:markers stroke fill;stop-color:#000000"
         d="m 43.889928,67.462622 v -6.585251 h 6.585251 6.585252 v 6.585251 6.585251 h -6.585252 -6.585251 z"
         id="path1225" />
      <g
         aria-label="}"
         id="text1229"
         style="font-style:normal;font-variant:normal;font-weight:300;font-stretch:normal;font-size:11.2889px;line-height:1.25;font-family:Lato;-inkscape-font-specification:'Lato Light';stroke-width:0.183461"
         transform="matrix(1.4421838,0,0,1.4421838,-136.37817,-142.61263)">
        <path
           d="m 160.76175,141.62708 q 0,0.31044 0.0508,0.60395 0.0565,0.29351 0.11854,0.58702 0.0621,0.29352 0.11289,0.59267 0.0564,0.29351 0.0564,0.6096 0,0.34431 -0.10724,0.63782 -0.10725,0.29351 -0.31045,0.508 -0.2032,0.22014 -0.50235,0.33867 -0.29351,0.12418 -0.66605,0.12418 h -0.31044 v -0.23707 q 0,-0.0621 0.0452,-0.0959 0.0452,-0.0339 0.096,-0.0339 h 0.18627 q 0.24271,0 0.44026,-0.0847 0.2032,-0.0847 0.34431,-0.24271 0.14676,-0.15804 0.22578,-0.38382 0.0847,-0.22578 0.0847,-0.50236 0,-0.31609 -0.0508,-0.62089 -0.0508,-0.3048 -0.11289,-0.60395 -0.0621,-0.29916 -0.11289,-0.59267 -0.0508,-0.29915 -0.0508,-0.59831 0,-0.20884 0.0677,-0.37818 0.0677,-0.17497 0.18063,-0.3048 0.11853,-0.13546 0.26528,-0.22013 0.1524,-0.0903 0.31609,-0.12418 -0.16369,-0.0395 -0.31609,-0.12418 -0.14675,-0.0903 -0.26528,-0.22013 -0.11289,-0.12982 -0.18063,-0.3048 -0.0677,-0.17498 -0.0677,-0.38382 0,-0.29916 0.0508,-0.59267 0.0508,-0.29915 0.11289,-0.59266 0.0621,-0.29916 0.11289,-0.60396 0.0508,-0.3048 0.0508,-0.62653 0,-0.27658 -0.0847,-0.50236 -0.079,-0.22578 -0.22578,-0.38382 -0.14111,-0.15805 -0.34431,-0.24271 -0.19755,-0.0847 -0.44026,-0.0847 H 159.345 q -0.0508,0 -0.096,-0.0339 -0.0452,-0.0339 -0.0452,-0.0959 v -0.23707 h 0.31044 q 0.37254,0 0.66605,0.12418 0.29915,0.11853 0.50235,0.33867 0.2032,0.21449 0.31045,0.508 0.10724,0.29351 0.10724,0.63782 0,0.31609 -0.0564,0.61524 -0.0508,0.29351 -0.11289,0.58703 -0.0621,0.29351 -0.11854,0.58702 -0.0508,0.29351 -0.0508,0.60395 0,0.18627 0.0621,0.34431 0.0621,0.1524 0.17498,0.27094 0.11853,0.11289 0.27658,0.17498 0.16369,0.0621 0.36124,0.0621 v 0.34432 q -0.19755,0 -0.36124,0.0621 -0.15805,0.0621 -0.27658,0.18063 -0.11289,0.11289 -0.17498,0.27093 -0.0621,0.1524 -0.0621,0.33867 z"
           style="font-style:normal;font-variant:normal;font-weight:300;font-stretch:normal;font-size:11.2889px;font-family:Lato;-inkscape-font-specification:'Lato Light';stroke-width:0.183461"
           id="path1248" />
      </g>
      <g
         aria-label="{"
         id="text1233"
         style="font-style:normal;font-variant:normal;font-weight:300;font-stretch:normal;font-size:11.2889px;line-height:1.25;font-family:Lato;-inkscape-font-specification:'Lato Light';stroke-width:0.165935"
         transform="matrix(-1.5945012,0,0,1.5945012,-145.66712,-76.112867)">
        <path
           d="m -151.06761,74.125849 q 0,-0.186267 -0.0621,-0.338667 -0.0621,-0.158044 -0.18062,-0.270933 -0.11289,-0.118533 -0.27658,-0.180622 -0.16369,-0.06209 -0.36124,-0.06209 v -0.344311 q 0.19755,0 0.36124,-0.06209 0.16369,-0.06209 0.27658,-0.174978 0.11853,-0.118533 0.18062,-0.270933 0.0621,-0.158045 0.0621,-0.344311 0,-0.310445 -0.0564,-0.603956 -0.0508,-0.293511 -0.11289,-0.587022 -0.0621,-0.293511 -0.11853,-0.587022 -0.0508,-0.299156 -0.0508,-0.615245 0,-0.344311 0.10724,-0.637822 0.10724,-0.293511 0.31044,-0.508 0.2032,-0.220133 0.49672,-0.338667 0.29915,-0.124178 0.67168,-0.124178 h 0.31045 v 0.237067 q 0,0.06209 -0.0508,0.09596 -0.0452,0.03387 -0.0903,0.03387 h -0.18627 q -0.24271,0 -0.44591,0.08467 -0.19756,0.08467 -0.34431,0.242711 -0.14111,0.158045 -0.22578,0.383822 -0.079,0.225778 -0.079,0.502356 0,0.321733 0.0508,0.626533 0.0508,0.3048 0.11289,0.603956 0.0621,0.293511 0.11289,0.592666 0.0508,0.293512 0.0508,0.592667 0,0.208845 -0.0734,0.383822 -0.0677,0.174978 -0.18627,0.3048 -0.11289,0.129823 -0.26529,0.220134 -0.14675,0.08467 -0.31044,0.124177 0.16369,0.03387 0.31044,0.124178 0.1524,0.08467 0.26529,0.220134 0.11854,0.129822 0.18627,0.3048 0.0734,0.169333 0.0734,0.378177 0,0.299156 -0.0508,0.598311 -0.0508,0.293512 -0.11289,0.592667 -0.0621,0.299156 -0.11289,0.603956 -0.0508,0.3048 -0.0508,0.620889 0,0.276577 0.079,0.502355 0.0847,0.225778 0.22578,0.383822 0.14675,0.158045 0.34431,0.242711 0.2032,0.08467 0.44591,0.08467 h 0.18627 q 0.0451,0 0.0903,0.03387 0.0508,0.03387 0.0508,0.09596 v 0.237067 h -0.31045 q -0.37253,0 -0.67168,-0.124178 -0.29352,-0.118533 -0.49672,-0.338666 -0.2032,-0.214489 -0.31044,-0.508 -0.10724,-0.293512 -0.10724,-0.637823 0,-0.316089 0.0508,-0.6096 0.0564,-0.299155 0.11853,-0.592666 0.0621,-0.293511 0.11289,-0.587023 0.0564,-0.293511 0.0564,-0.603955 z"
           style="font-style:normal;font-variant:normal;font-weight:300;font-stretch:normal;font-size:11.2889px;font-family:Lato;-inkscape-font-specification:'Lato Light';stroke-width:0.165935"
           id="path1254" />
      </g>
      <g
         aria-label="}"
         id="text1237"
         style="font-style:normal;font-variant:normal;font-weight:300;font-stretch:normal;font-size:11.2889px;line-height:1.25;font-family:Lato;-inkscape-font-specification:'Lato Light';stroke-width:0.207708"
         transform="matrix(1.2738198,0,0,1.2738198,-94.834082,45.286778)">
        <path
           d="m 148.56316,-25.323231 q 0,0.310445 0.0508,0.603956 0.0565,0.293511 0.11853,0.587022 0.0621,0.293511 0.11289,0.592667 0.0564,0.293511 0.0564,0.6096 0,0.344311 -0.10725,0.637822 -0.10724,0.293511 -0.31044,0.508 -0.2032,0.220133 -0.50236,0.338667 -0.29351,0.124177 -0.66604,0.124177 h -0.31045 v -0.237066 q 0,-0.06209 0.0452,-0.09596 0.0452,-0.03387 0.096,-0.03387 h 0.18626 q 0.24271,0 0.44027,-0.08467 0.2032,-0.08467 0.34431,-0.242711 0.14676,-0.158045 0.22578,-0.383822 0.0847,-0.225778 0.0847,-0.502356 0,-0.316089 -0.0508,-0.620889 -0.0508,-0.3048 -0.11288,-0.603955 -0.0621,-0.299156 -0.11289,-0.592667 -0.0508,-0.299156 -0.0508,-0.598311 0,-0.208845 0.0677,-0.378178 0.0677,-0.174978 0.18062,-0.3048 0.11854,-0.135467 0.26529,-0.220133 0.1524,-0.09031 0.31609,-0.124178 -0.16369,-0.03951 -0.31609,-0.124178 -0.14675,-0.09031 -0.26529,-0.220133 -0.11289,-0.129822 -0.18062,-0.3048 -0.0677,-0.174978 -0.0677,-0.383822 0,-0.299156 0.0508,-0.592667 0.0508,-0.299156 0.11289,-0.592667 0.0621,-0.299155 0.11288,-0.603955 0.0508,-0.3048 0.0508,-0.626534 0,-0.276577 -0.0847,-0.502355 -0.079,-0.225778 -0.22578,-0.383822 -0.14111,-0.158045 -0.34431,-0.242712 -0.19756,-0.08467 -0.44027,-0.08467 h -0.18626 q -0.0508,0 -0.096,-0.03387 -0.0452,-0.03387 -0.0452,-0.09596 v -0.237067 h 0.31045 q 0.37253,0 0.66604,0.124178 0.29916,0.118533 0.50236,0.338666 0.2032,0.214489 0.31044,0.508 0.10725,0.293511 0.10725,0.637823 0,0.316088 -0.0564,0.615244 -0.0508,0.293511 -0.11289,0.587022 -0.0621,0.293511 -0.11853,0.587022 -0.0508,0.293512 -0.0508,0.603956 0,0.186267 0.0621,0.344311 0.0621,0.1524 0.17498,0.270933 0.11853,0.112889 0.27658,0.174978 0.16368,0.06209 0.36124,0.06209 v 0.344311 q -0.19756,0 -0.36124,0.06209 -0.15805,0.06209 -0.27658,0.180622 -0.11289,0.112889 -0.17498,0.270934 -0.0621,0.1524 -0.0621,0.338666 z"
           style="font-style:normal;font-variant:normal;font-weight:300;font-stretch:normal;font-size:11.2889px;font-family:Lato;-inkscape-font-specification:'Lato Light';stroke-width:0.207708"
           id="path1251" />
      </g>
      <g
         aria-label="Track"
         id="text1259"
         style="font-style:normal;font-variant:normal;font-weight:normal;font-stretch:normal;font-size:11.2889px;line-height:1.25;font-family:Lato;-inkscape-font-specification:Lato;stroke-width:0.895996"
         transform="matrix(0.29529488,0,0,0.29529488,52.320812,17.496263)">
        <path
           d="m 157.60776,-27.300311 v 0.920044 h -2.61337 v 7.168444 h -1.09503 v -7.168444 h -2.62466 v -0.920044 z"
           style="font-style:normal;font-variant:normal;font-weight:normal;font-stretch:normal;font-size:11.2889px;font-family:Lato;-inkscape-font-specification:Lato;stroke-width:0.895996"
           id="path1287" />
        <path
           d="m 157.69543,-19.211823 v -5.717822 h 0.57573 q 0.16369,0 0.22578,0.06209 0.0621,0.06209 0.0847,0.214489 l 0.0677,0.891822 q 0.29351,-0.598311 0.72249,-0.931333 0.43462,-0.338667 1.016,-0.338667 0.23707,0 0.42898,0.05645 0.19191,0.0508 0.3556,0.146755 l -0.12982,0.750711 q -0.0395,0.141111 -0.17498,0.141111 -0.079,0 -0.24271,-0.0508 -0.16369,-0.05644 -0.4572,-0.05644 -0.52494,0 -0.88054,0.3048 -0.34995,0.3048 -0.58702,0.886178 v 3.640666 z"
           style="font-style:normal;font-variant:normal;font-weight:normal;font-stretch:normal;font-size:11.2889px;font-family:Lato;-inkscape-font-specification:Lato;stroke-width:0.895996"
           id="path1289" />
        <path
           d="m 166.21642,-19.211823 h -0.44591 q -0.14675,0 -0.23706,-0.04516 -0.0903,-0.04516 -0.11854,-0.191911 l -0.11289,-0.530578 q -0.22577,0.2032 -0.44026,0.366889 -0.21449,0.158044 -0.45156,0.270933 -0.23706,0.107245 -0.508,0.163689 -0.26529,0.05644 -0.59266,0.05644 -0.33303,0 -0.62654,-0.09031 -0.28786,-0.09596 -0.50235,-0.282222 -0.21449,-0.186266 -0.34431,-0.468489 -0.12418,-0.287866 -0.12418,-0.677333 0,-0.338667 0.18626,-0.649111 0.18627,-0.316089 0.59832,-0.5588 0.41768,-0.242711 1.08937,-0.395111 0.67169,-0.158045 1.64254,-0.180622 v -0.445912 q 0,-0.666044 -0.28787,-1.004711 -0.28222,-0.344311 -0.84102,-0.344311 -0.36689,0 -0.62089,0.09596 -0.24836,0.09031 -0.43462,0.208844 -0.18063,0.112889 -0.31609,0.208845 -0.12982,0.09031 -0.25965,0.09031 -0.1016,0 -0.18062,-0.0508 -0.0734,-0.05645 -0.11853,-0.135467 l -0.18062,-0.321733 q 0.47413,-0.4572 1.02164,-0.682978 0.54751,-0.225778 1.21356,-0.225778 0.47977,0 0.85231,0.158045 0.37253,0.158044 0.62653,0.440266 0.254,0.282223 0.38382,0.682978 0.12982,0.400756 0.12982,0.880533 z m -2.60773,-0.615244 q 0.26529,0 0.48542,-0.0508 0.22014,-0.05644 0.41205,-0.1524 0.19755,-0.1016 0.37253,-0.242711 0.18062,-0.141111 0.34996,-0.321733 v -1.190978 q -0.69427,0.02258 -1.17969,0.112889 -0.48542,0.08467 -0.79022,0.225777 -0.3048,0.141112 -0.44592,0.333023 -0.13546,0.191911 -0.13546,0.428977 0,0.225778 0.0734,0.389467 0.0734,0.163689 0.19755,0.270933 0.12418,0.1016 0.29351,0.1524 0.16934,0.04516 0.36689,0.04516 z"
           style="font-style:normal;font-variant:normal;font-weight:normal;font-stretch:normal;font-size:11.2889px;font-family:Lato;-inkscape-font-specification:Lato;stroke-width:0.895996"
           id="path1291" />
        <path
           d="m 171.64991,-23.913645 q -0.0452,0.06209 -0.0903,0.09596 -0.0452,0.03387 -0.12983,0.03387 -0.0847,0 -0.18626,-0.06773 -0.096,-0.07338 -0.24836,-0.158044 -0.1524,-0.08467 -0.37253,-0.1524 -0.21449,-0.07338 -0.53058,-0.07338 -0.41769,0 -0.73942,0.1524 -0.32173,0.146755 -0.54187,0.428978 -0.21449,0.282222 -0.32738,0.682977 -0.10724,0.400756 -0.10724,0.897467 0,0.519289 0.11853,0.925689 0.11854,0.400756 0.33303,0.677333 0.21448,0.270934 0.51928,0.417689 0.31045,0.141111 0.69427,0.141111 0.36689,0 0.60396,-0.08467 0.23706,-0.09031 0.39511,-0.197556 0.15804,-0.107244 0.25964,-0.191911 0.1016,-0.09031 0.2032,-0.09031 0.12982,0 0.19191,0.09596 l 0.28223,0.366889 q -0.37254,0.4572 -0.93134,0.671689 -0.5588,0.208845 -1.17969,0.208845 -0.53622,0 -0.99906,-0.197556 -0.4572,-0.197555 -0.79587,-0.570089 -0.33867,-0.378178 -0.53622,-0.925689 -0.19191,-0.547511 -0.19191,-1.247422 0,-0.637822 0.17497,-1.179689 0.18063,-0.541866 0.51929,-0.931333 0.34431,-0.395111 0.84667,-0.615245 0.50236,-0.220133 1.15147,-0.220133 0.59831,0 1.06115,0.197556 0.46285,0.191911 0.81845,0.547511 z"
           style="font-style:normal;font-variant:normal;font-weight:normal;font-stretch:normal;font-size:11.2889px;font-family:Lato;-inkscape-font-specification:Lato;stroke-width:0.895996"
           id="path1293" />
        <path
           d="m 174.06344,-27.526089 v 4.893733 h 0.25964 q 0.11289,0 0.18627,-0.02822 0.0734,-0.03387 0.16369,-0.129822 l 1.80622,-1.936045 q 0.0847,-0.09031 0.16933,-0.146755 0.0847,-0.05645 0.22578,-0.05645 h 0.9144 l -2.10538,2.240845 q -0.079,0.09596 -0.15804,0.169333 -0.0734,0.07338 -0.16934,0.129822 0.1016,0.06773 0.18063,0.158045 0.0847,0.08467 0.15804,0.197555 l 2.2352,2.822222 h -0.90311 q -0.12418,0 -0.21449,-0.04516 -0.0847,-0.0508 -0.16369,-0.1524 l -1.8796,-2.342445 q -0.0847,-0.118533 -0.16933,-0.1524 -0.0847,-0.03951 -0.254,-0.03951 h -0.28222 v 2.731911 h -1.01036 v -8.314266 z"
           style="font-style:normal;font-variant:normal;font-weight:normal;font-stretch:normal;font-size:11.2889px;font-family:Lato;-inkscape-font-specification:Lato;stroke-width:0.895996"
           id="path1295" />
      </g>
      <g
         aria-label="Area"
         id="text1263"
         style="font-style:normal;font-variant:normal;font-weight:normal;font-stretch:normal;font-size:11.2889px;line-height:1.25;font-family:Lato;-inkscape-font-specification:Lato;stroke-width:0.895996"
         transform="matrix(0.29529488,0,0,0.29529488,52.320812,17.496263)">
        <path
           d="m 164.96658,144.13295 h -0.84667 q -0.14676,0 -0.23707,-0.0734 -0.0903,-0.0734 -0.13546,-0.18626 l -0.75636,-1.95298 h -3.62938 l -0.75636,1.95298 q -0.0395,0.1016 -0.13547,0.18062 -0.0959,0.079 -0.23706,0.079 h -0.84667 l 3.23427,-8.0885 h 1.11196 z m -5.30014,-3.00285 h 3.01978 l -1.27,-3.29071 q -0.12418,-0.3048 -0.24271,-0.762 -0.0621,0.23142 -0.12418,0.42898 -0.0564,0.19191 -0.11289,0.33866 z"
           style="font-style:normal;font-variant:normal;font-weight:normal;font-stretch:normal;font-size:11.2889px;font-family:Lato;-inkscape-font-specification:Lato;stroke-width:0.895996"
           id="path1278" />
        <path
           d="m 165.82665,144.13295 v -5.71783 h 0.57573 q 0.16369,0 0.22578,0.0621 0.0621,0.0621 0.0847,0.21449 l 0.0677,0.89182 q 0.29351,-0.59831 0.72249,-0.93133 0.43462,-0.33867 1.016,-0.33867 0.23707,0 0.42898,0.0564 0.19191,0.0508 0.3556,0.14675 l -0.12982,0.75071 q -0.0395,0.14112 -0.17498,0.14112 -0.079,0 -0.24271,-0.0508 -0.16369,-0.0564 -0.4572,-0.0564 -0.52493,0 -0.88054,0.3048 -0.34995,0.3048 -0.58702,0.88618 v 3.64067 z"
           style="font-style:normal;font-variant:normal;font-weight:normal;font-stretch:normal;font-size:11.2889px;font-family:Lato;-inkscape-font-specification:Lato;stroke-width:0.895996"
           id="path1280" />
        <path
           d="m 172.63209,138.32481 q 0.51365,0 0.94827,0.17498 0.43462,0.16933 0.75071,0.49671 0.31609,0.32173 0.49107,0.80151 0.18062,0.47414 0.18062,1.08374 0,0.23706 -0.0508,0.31609 -0.0508,0.079 -0.19191,0.079 h -3.80436 q 0.0113,0.54187 0.14676,0.94262 0.13546,0.40076 0.37253,0.67169 0.23707,0.26529 0.56445,0.40076 0.32737,0.12982 0.73377,0.12982 0.37818,0 0.64912,-0.0847 0.27657,-0.0903 0.47413,-0.19191 0.19756,-0.1016 0.32738,-0.18627 0.13546,-0.0903 0.23142,-0.0903 0.12418,0 0.19191,0.096 l 0.28222,0.36689 q -0.18626,0.22578 -0.44591,0.39511 -0.25964,0.16369 -0.5588,0.27093 -0.29351,0.10725 -0.6096,0.15805 -0.31609,0.0564 -0.62653,0.0564 -0.59267,0 -1.09503,-0.19755 -0.49671,-0.2032 -0.8636,-0.58703 -0.36124,-0.38946 -0.56444,-0.95955 -0.2032,-0.57009 -0.2032,-1.30952 0,-0.59831 0.18062,-1.1176 0.18627,-0.51929 0.53058,-0.89746 0.34431,-0.38383 0.84102,-0.59832 0.49671,-0.22013 1.1176,-0.22013 z m 0.0226,0.73942 q -0.72813,0 -1.14582,0.42334 -0.41769,0.41769 -0.51929,1.16275 h 3.11009 q 0,-0.34995 -0.096,-0.63782 -0.096,-0.29351 -0.28222,-0.50235 -0.18627,-0.21449 -0.4572,-0.32738 -0.26529,-0.11854 -0.6096,-0.11854 z"
           style="font-style:normal;font-variant:normal;font-weight:normal;font-stretch:normal;font-size:11.2889px;font-family:Lato;-inkscape-font-specification:Lato;stroke-width:0.895996"
           id="path1282" />
        <path
           d="m 180.47717,144.13295 h -0.44591 q -0.14675,0 -0.23706,-0.0452 -0.0903,-0.0452 -0.11854,-0.19191 l -0.11289,-0.53058 q -0.22577,0.2032 -0.44026,0.36689 -0.21449,0.15805 -0.45156,0.27094 -0.23707,0.10724 -0.508,0.16369 -0.26529,0.0564 -0.59267,0.0564 -0.33302,0 -0.62653,-0.0903 -0.28787,-0.096 -0.50236,-0.28222 -0.21449,-0.18627 -0.34431,-0.46849 -0.12418,-0.28787 -0.12418,-0.67734 0,-0.33866 0.18627,-0.64911 0.18627,-0.31609 0.59831,-0.5588 0.41769,-0.24271 1.08938,-0.39511 0.67169,-0.15804 1.64254,-0.18062 v -0.44591 q 0,-0.66605 -0.28787,-1.00472 -0.28222,-0.34431 -0.84102,-0.34431 -0.36689,0 -0.62089,0.096 -0.24836,0.0903 -0.43463,0.20884 -0.18062,0.11289 -0.31609,0.20885 -0.12982,0.0903 -0.25964,0.0903 -0.1016,0 -0.18062,-0.0508 -0.0734,-0.0565 -0.11854,-0.13547 l -0.18062,-0.32173 q 0.47413,-0.4572 1.02165,-0.68298 0.54751,-0.22578 1.21355,-0.22578 0.47978,0 0.85232,0.15805 0.37253,0.15804 0.62653,0.44026 0.254,0.28223 0.38382,0.68298 0.12982,0.40076 0.12982,0.88054 z m -2.60773,-0.61525 q 0.26529,0 0.48542,-0.0508 0.22013,-0.0564 0.41205,-0.1524 0.19755,-0.1016 0.37253,-0.24271 0.18062,-0.14111 0.34996,-0.32173 v -1.19098 q -0.69427,0.0226 -1.17969,0.11289 -0.48543,0.0847 -0.79023,0.22578 -0.3048,0.14111 -0.44591,0.33302 -0.13547,0.19191 -0.13547,0.42898 0,0.22578 0.0734,0.38947 0.0734,0.16368 0.19756,0.27093 0.12418,0.1016 0.29351,0.1524 0.16933,0.0451 0.36689,0.0451 z"
           style="font-style:normal;font-variant:normal;font-weight:normal;font-stretch:normal;font-size:11.2889px;font-family:Lato;-inkscape-font-specification:Lato;stroke-width:0.895996"
           id="path1284" />
      </g>
      <g
         aria-label="Cell"
         id="text1267"
         style="font-style:normal;font-variant:normal;font-weight:normal;font-stretch:normal;font-size:11.2889px;line-height:1.25;font-family:Lato;-inkscape-font-specification:Lato;stroke-width:0.895996"
         transform="matrix(0.29529488,0,0,0.29529488,149.15865,17.496263)">
        <path
           d="m -170.26648,77.594982 q 0.0903,0 0.16369,0.07338 l 0.42898,0.468489 q -0.49671,0.575734 -1.20791,0.897468 -0.70556,0.321734 -1.70463,0.321734 -0.87489,0 -1.58609,-0.299156 -0.7112,-0.304801 -1.21356,-0.846668 -0.50235,-0.547511 -0.77893,-1.309512 -0.27658,-0.762001 -0.27658,-1.676402 0,-0.914401 0.29351,-1.676402 0.29916,-0.762 0.83538,-1.309512 0.53622,-0.547512 1.28129,-0.846668 0.75071,-0.3048 1.65383,-0.3048 0.89182,0 1.53529,0.276578 0.64911,0.276578 1.15146,0.750712 l -0.3556,0.502356 q -0.0395,0.05644 -0.0903,0.09596 -0.0508,0.03387 -0.14675,0.03387 -0.0734,0 -0.15805,-0.0508 -0.079,-0.05644 -0.19191,-0.135466 -0.11289,-0.07902 -0.26529,-0.169334 -0.1524,-0.09031 -0.36124,-0.169333 -0.20885,-0.07902 -0.48543,-0.129823 -0.27657,-0.05644 -0.63782,-0.05644 -0.64911,0 -1.19098,0.225778 -0.53622,0.220133 -0.92569,0.632178 -0.38946,0.412045 -0.6096,1.004712 -0.21449,0.592668 -0.21449,1.326446 0,0.756356 0.21449,1.349024 0.22014,0.592667 0.59267,1.004712 0.37818,0.4064 0.89182,0.620889 0.51365,0.214489 1.10631,0.214489 0.36125,0 0.64912,-0.03951 0.28786,-0.04515 0.53057,-0.135466 0.24836,-0.09031 0.45721,-0.225779 0.21448,-0.141111 0.42897,-0.333022 0.096,-0.08467 0.18627,-0.08467 z"
           style="font-style:normal;font-variant:normal;font-weight:normal;font-stretch:normal;font-size:11.2889px;font-family:Lato;-inkscape-font-specification:Lato;stroke-width:0.895996"
           id="path1269" />
        <path
           d="m -166.12292,73.4576 q 0.51364,0 0.94826,0.174978 0.43463,0.169334 0.75072,0.496712 0.31608,0.321733 0.49106,0.801512 0.18063,0.474134 0.18063,1.083734 0,0.237067 -0.0508,0.316089 -0.0508,0.07902 -0.19192,0.07902 h -3.80436 q 0.0113,0.541867 0.14676,0.942623 0.13547,0.400756 0.37253,0.671689 0.23707,0.26529 0.56445,0.400756 0.32738,0.129823 0.73378,0.129823 0.37818,0 0.64911,-0.08467 0.27658,-0.09031 0.47413,-0.191911 0.19756,-0.1016 0.32738,-0.186267 0.13547,-0.09031 0.23142,-0.09031 0.12418,0 0.19191,0.09595 l 0.28223,0.36689 q -0.18627,0.225778 -0.44591,0.395111 -0.25965,0.163689 -0.5588,0.270934 -0.29352,0.107244 -0.60961,0.158044 -0.31608,0.05644 -0.62653,0.05644 -0.59267,0 -1.09502,-0.197556 -0.49671,-0.2032 -0.8636,-0.587023 -0.36125,-0.389467 -0.56445,-0.959556 -0.2032,-0.57009 -0.2032,-1.309513 0,-0.598312 0.18062,-1.117601 0.18627,-0.519289 0.53058,-0.897468 0.34431,-0.383822 0.84102,-0.598311 0.49672,-0.220134 1.11761,-0.220134 z m 0.0226,0.739423 q -0.72813,0 -1.14582,0.423334 -0.41769,0.417689 -0.51929,1.162757 h 3.11009 q 0,-0.349956 -0.0959,-0.637823 -0.096,-0.293512 -0.28223,-0.502356 -0.18626,-0.214489 -0.4572,-0.327378 -0.26528,-0.118534 -0.6096,-0.118534 z"
           style="font-style:normal;font-variant:normal;font-weight:normal;font-stretch:normal;font-size:11.2889px;font-family:Lato;-inkscape-font-specification:Lato;stroke-width:0.895996"
           id="path1271" />
        <path
           d="m -161.35971,70.951464 v 8.314275 h -1.00472 v -8.314275 z"
           style="font-style:normal;font-variant:normal;font-weight:normal;font-stretch:normal;font-size:11.2889px;font-family:Lato;-inkscape-font-specification:Lato;stroke-width:0.895996"
           id="path1273" />
        <path
           d="m -158.47134,70.951464 v 8.314275 h -1.00471 v -8.314275 z"
           style="font-style:normal;font-variant:normal;font-weight:normal;font-stretch:normal;font-size:11.2889px;font-family:Lato;-inkscape-font-specification:Lato;stroke-width:0.895996"
           id="path1275" />
      </g>
      <path
         style="opacity:0.472094;fill:#ffff00;stroke-width:0.999999;stroke-linecap:round;stroke-linejoin:bevel;paint-order:markers stroke fill;stop-color:#000000"
         d="m 272.0241,149.57686 v -23.23351 h 23.73858 23.73858 v 23.23351 23.2335 H 295.76268 272.0241 Z"
         id="path903"
         transform="scale(0.26458333)" />
    </g>
  </g>
</svg>
