<?xml version="1.0" encoding="UTF-8" standalone="no"?>
<svg
   xmlns:dc="http://purl.org/dc/elements/1.1/"
   xmlns:cc="http://creativecommons.org/ns#"
   xmlns:rdf="http://www.w3.org/1999/02/22-rdf-syntax-ns#"
   xmlns:svg="http://www.w3.org/2000/svg"
   xmlns="http://www.w3.org/2000/svg"
   xmlns:sodipodi="http://sodipodi.sourceforge.net/DTD/sodipodi-0.dtd"
   xmlns:inkscape="http://www.inkscape.org/namespaces/inkscape"
   width="30"
   height="30"
   viewBox="0 0 7.9374997 7.9375005"
   version="1.1"
   id="svg946"
   inkscape:version="1.0.1 (3bc2e813f5, 2020-09-07)"
   sodipodi:docname="half-star.svg">
  <defs
     id="defs940" />
  <sodipodi:namedview
     id="base"
     pagecolor="#ffffff"
     bordercolor="#666666"
     borderopacity="1.0"
     inkscape:pageopacity="0.0"
     inkscape:pageshadow="2"
     inkscape:zoom="11.2"
     inkscape:cx="10.347078"
     inkscape:cy="18.684331"
     inkscape:document-units="px"
     inkscape:current-layer="layer1"
     inkscape:document-rotation="0"
     showgrid="false"
     units="px"
     inkscape:pagecheckerboard="true"
     inkscape:window-width="1600"
     inkscape:window-height="836"
     inkscape:window-x="0"
     inkscape:window-y="0"
     inkscape:window-maximized="1" />
  <metadata
     id="metadata943">
    <rdf:RDF>
      <cc:Work
         rdf:about="">
        <dc:format>image/svg+xml</dc:format>
        <dc:type
           rdf:resource="http://purl.org/dc/dcmitype/StillImage" />
        <dc:title></dc:title>
      </cc:Work>
    </rdf:RDF>
  </metadata>
  <g
     inkscape:label="Calque 1"
     inkscape:groupmode="layer"
     id="layer1">
    <g
       id="g1520">
      <path
         id="path1501"
         style="color:#000000;font-style:normal;font-variant:normal;font-weight:normal;font-stretch:normal;font-size:medium;line-height:normal;font-family:sans-serif;font-variant-ligatures:normal;font-variant-position:normal;font-variant-caps:normal;font-variant-numeric:normal;font-variant-alternates:normal;font-variant-east-asian:normal;font-feature-settings:normal;font-variation-settings:normal;text-indent:0;text-align:start;text-decoration:none;text-decoration-line:none;text-decoration-style:solid;text-decoration-color:#000000;letter-spacing:normal;word-spacing:normal;text-transform:none;writing-mode:lr-tb;direction:ltr;text-orientation:mixed;dominant-baseline:auto;baseline-shift:baseline;text-anchor:start;white-space:normal;shape-padding:0;shape-margin:0;inline-size:0;clip-rule:nonzero;display:inline;overflow:visible;visibility:visible;opacity:1;isolation:auto;mix-blend-mode:normal;color-interpolation:sRGB;color-interpolation-filters:linearRGB;solid-color:#000000;solid-opacity:1;vector-effect:none;fill:#00ff00;fill-opacity:1;fill-rule:nonzero;stroke:none;stroke-width:2;stroke-linecap:round;stroke-linejoin:round;stroke-miterlimit:4;stroke-dasharray:none;stroke-dashoffset:0;stroke-opacity:1;paint-order:markers stroke fill;color-rendering:auto;image-rendering:auto;shape-rendering:auto;text-rendering:auto;enable-background:accumulate;stop-color:#000000;stop-opacity:1"
         d="M 15.158203 0.99804688 A 1.0204294 0.98017843 89.999999 0 0 15.128906 1 A 1.0204294 0.98017843 89.999999 0 0 14.330078 1.546875 L 10.375 9.4707031 L 1.8574219 10.566406 A 1.0204294 0.98017843 89.999999 0 0 1.2832031 12.294922 L 7.296875 18.660156 L 5.6660156 27.433594 A 1.0204294 0.98017843 89.999999 0 0 7.0605469 28.537109 L 14.740234 24.552734 L 22.244141 28.873047 A 1.0204294 0.98017843 89.999999 0 0 23.691406 27.832031 L 22.417969 19.001953 L 28.689453 12.900391 A 1.0204294 0.98017843 89.999999 0 0 28.181641 11.152344 L 19.722656 9.6757812 L 16.087891 1.5859375 A 1.0204294 0.98017843 89.999999 0 0 15.158203 0.99804688 z M 15.154297 4.3261719 L 17.982422 10.623047 L 13.953125 22.679688 L 7.9628906 25.789062 L 9.3183594 18.523438 A 1.0204294 0.98017843 89.999999 0 0 9.0527344 17.617188 L 4.0683594 12.335938 L 11.121094 11.431641 A 1.0204294 0.98017843 89.999999 0 0 11.871094 10.888672 L 15.154297 4.3261719 z M 19.71875 11.744141 L 25.90625 12.820312 L 20.705078 17.873047 A 1.0204294 0.98017843 89.999999 0 0 20.404297 18.769531 L 21.457031 26.083984 L 15.980469 22.929688 L 19.71875 11.744141 z "
         transform="scale(0.26458334)" />
      <g
         id="g1510"
         transform="scale(0.26458334)"
         style="opacity:1">
        <path
           style="color:#000000;font-style:normal;font-variant:normal;font-weight:normal;font-stretch:normal;font-size:medium;line-height:normal;font-family:sans-serif;font-variant-ligatures:normal;font-variant-position:normal;font-variant-caps:normal;font-variant-numeric:normal;font-variant-alternates:normal;font-variant-east-asian:normal;font-feature-settings:normal;font-variation-settings:normal;text-indent:0;text-align:start;text-decoration:none;text-decoration-line:none;text-decoration-style:solid;text-decoration-color:#000000;letter-spacing:normal;word-spacing:normal;text-transform:none;writing-mode:lr-tb;direction:ltr;text-orientation:mixed;dominant-baseline:auto;baseline-shift:baseline;text-anchor:start;white-space:normal;shape-padding:0;shape-margin:0;inline-size:0;clip-rule:nonzero;display:inline;overflow:visible;visibility:visible;isolation:auto;mix-blend-mode:normal;color-interpolation:sRGB;color-interpolation-filters:linearRGB;solid-color:#000000;solid-opacity:1;vector-effect:none;fill:#00ff00;fill-opacity:1;fill-rule:nonzero;stroke:none;stroke-width:2;stroke-linecap:round;stroke-linejoin:round;stroke-miterlimit:4;stroke-dasharray:none;stroke-dashoffset:0;stroke-opacity:1.0;paint-order:markers stroke fill;color-rendering:auto;image-rendering:auto;shape-rendering:auto;text-rendering:auto;enable-background:accumulate;stop-color:#000000;stop-opacity:1;"
           d="M 15.042969 3.6132812 C 15.042508 3.6133472 14.779843 3.6892124 14.779297 3.6894531 C 14.77875 3.6896939 14.669651 3.7453615 14.632812 3.7695312 C 14.485459 3.8662101 14.453582 3.9148968 14.419922 3.953125 C 14.352602 4.0295814 14.333674 4.0639659 14.308594 4.1015625 C 14.258432 4.1767557 14.218217 4.2448106 14.167969 4.3320312 C 14.067471 4.5064726 13.939663 4.742157 13.785156 5.0332031 C 13.476143 5.6152954 13.063549 6.4161858 12.619141 7.3066406 C 12.178165 8.190216 11.753161 9.0137129 11.425781 9.625 C 11.262091 9.9306435 11.122133 10.183383 11.021484 10.357422 C 10.999885 10.394771 10.990202 10.410115 10.972656 10.439453 C 10.931534 10.450647 10.923164 10.455251 10.785156 10.480469 C 10.353769 10.559296 9.4625756 10.679994 7.7734375 10.898438 C 6.8003268 11.024283 5.9092966 11.145171 5.2519531 11.240234 C 4.9232814 11.287766 4.6552051 11.328729 4.4570312 11.361328 C 4.3579443 11.377628 4.2767903 11.390034 4.2050781 11.404297 C 4.169222 11.411429 4.1375483 11.419288 4.0898438 11.431641 C 4.0659915 11.437817 4.0411698 11.442837 3.9902344 11.460938 C 3.9647667 11.469988 3.9334417 11.482111 3.8808594 11.507812 C 3.8545682 11.520663 3.8223172 11.536952 3.7792969 11.564453 C 3.7362766 11.591954 3.6076906 11.702855 3.6074219 11.703125 C 3.6071531 11.703395 3.3751439 12.069912 3.375 12.070312 C 3.3748561 12.070713 3.316426 12.372517 3.3164062 12.373047 C 3.3163865 12.373577 3.3201259 12.517528 3.328125 12.568359 C 3.3361241 12.619191 3.345973 12.658407 3.3554688 12.691406 C 3.3934516 12.823403 3.4229369 12.867544 3.4453125 12.908203 C 3.4900637 12.989522 3.5151683 13.023057 3.5410156 13.058594 C 3.5927103 13.129668 3.6420286 13.188455 3.703125 13.261719 C 3.8253179 13.408245 3.9891488 13.594695 4.1933594 13.822266 C 4.6017806 14.277406 5.1648098 14.887536 5.7929688 15.550781 C 7.2314889 17.06965 7.952483 17.832434 8.2578125 18.193359 C 8.3460729 18.297691 8.3272205 18.274444 8.3457031 18.300781 C 8.3396281 18.340928 8.336625 18.370507 8.328125 18.423828 C 8.2975989 18.615321 8.25191 18.884867 8.1972656 19.203125 C 8.0879769 19.839641 7.9404312 20.677211 7.7871094 21.527344 C 7.4804658 23.22761 7.1177323 25.114292 7.0800781 25.267578 C 7.0651471 25.32836 7.0376581 25.409385 7.0429688 25.597656 C 7.0482794 25.785928 7.1605521 26.202072 7.4921875 26.429688 C 7.8238229 26.657303 8.1015996 26.622118 8.2480469 26.601562 C 8.3944942 26.581007 8.4760208 26.550632 8.5546875 26.521484 C 8.8693544 26.404896 9.1557249 26.245211 9.7480469 25.935547 C 10.45285 25.567078 11.781706 24.87672 12.697266 24.402344 L 14.365234 23.539062 A 1.0001 1.0001 0 0 0 14.853516 22.966797 L 16.861328 16.947266 L 18.871094 10.925781 A 1.0001 1.0001 0 0 0 18.833984 10.199219 L 17.5 7.2304688 C 17.131794 6.4113571 16.789296 5.6582816 16.533203 5.1035156 C 16.405156 4.8261327 16.29981 4.5993696 16.220703 4.4335938 C 16.18115 4.3507058 16.147284 4.2843883 16.119141 4.2285156 C 16.105069 4.2005793 16.093044 4.1752813 16.076172 4.1445312 C 16.067736 4.1291562 16.060081 4.1136398 16.042969 4.0859375 C 16.034413 4.0720863 16.024309 4.0553847 16.005859 4.0292969 C 15.98741 4.0032091 15.893152 3.8970582 15.892578 3.8964844 C 15.892291 3.8961975 15.467171 3.6446412 15.466797 3.6445312 C 15.466423 3.6444213 15.043429 3.6132153 15.042969 3.6132812 z M 15.115234 6.8203125 C 15.298946 7.223462 15.462099 7.5754234 15.675781 8.0507812 L 16.849609 10.664062 L 14.964844 16.3125 L 13.083984 21.949219 L 11.777344 22.626953 C 11.031952 23.013161 10.114313 23.491524 9.3789062 23.875 C 9.5098453 23.17641 9.5969006 22.762248 9.7558594 21.880859 C 9.9099269 21.026591 10.057147 20.186459 10.167969 19.541016 C 10.22338 19.218294 10.269931 18.946013 10.302734 18.740234 C 10.319136 18.637345 10.331828 18.551646 10.341797 18.480469 C 10.351766 18.409292 10.365234 18.436063 10.365234 18.226562 C 10.365234 18.150287 10.355831 17.831928 10.240234 17.570312 C 10.124638 17.308697 9.9841825 17.13761 9.7851562 16.902344 C 9.3871038 16.431812 8.6843132 15.694333 7.2460938 14.175781 C 6.8592853 13.767368 6.5801623 13.459038 6.2675781 13.119141 C 6.8126419 13.043363 7.3485021 12.969154 8.03125 12.880859 C 9.7219658 12.662211 10.596216 12.549412 11.144531 12.449219 C 11.418689 12.399122 11.620393 12.35569 11.835938 12.267578 C 12.051482 12.179466 12.271164 12.008536 12.361328 11.921875 C 12.551971 11.738639 12.541079 11.708037 12.591797 11.628906 C 12.642514 11.549775 12.694306 11.462434 12.753906 11.359375 C 12.873106 11.153258 13.019385 10.887866 13.189453 10.570312 C 13.52959 9.9352048 13.961681 9.0978208 14.410156 8.1992188 C 14.681325 7.6558806 14.886879 7.2628396 15.115234 6.8203125 z "
           id="path1512" />
        <path
           style="color:#000000;font-style:normal;font-variant:normal;font-weight:normal;font-stretch:normal;font-size:medium;line-height:normal;font-family:sans-serif;font-variant-ligatures:normal;font-variant-position:normal;font-variant-caps:normal;font-variant-numeric:normal;font-variant-alternates:normal;font-variant-east-asian:normal;font-feature-settings:normal;font-variation-settings:normal;text-indent:0;text-align:start;text-decoration:none;text-decoration-line:none;text-decoration-style:solid;text-decoration-color:#000000;letter-spacing:normal;word-spacing:normal;text-transform:none;writing-mode:lr-tb;direction:ltr;text-orientation:mixed;dominant-baseline:auto;baseline-shift:baseline;text-anchor:start;white-space:normal;shape-padding:0;shape-margin:0;inline-size:0;clip-rule:nonzero;display:inline;overflow:visible;visibility:visible;isolation:auto;mix-blend-mode:normal;color-interpolation:sRGB;color-interpolation-filters:linearRGB;solid-color:#000000;solid-opacity:1;vector-effect:none;fill:#00ff00;fill-opacity:0.917647;fill-rule:nonzero;stroke:none;stroke-width:2;stroke-linecap:round;stroke-linejoin:round;stroke-miterlimit:4;stroke-dasharray:none;stroke-dashoffset:0;stroke-opacity:1.0;paint-order:markers stroke fill;color-rendering:auto;image-rendering:auto;shape-rendering:auto;text-rendering:auto;enable-background:accumulate;stop-color:#000000;stop-opacity:1;"
           d="m 8.0519249,25.506859 c 0.1669056,-0.679455 1.3130102,-7.034334 1.3130102,-7.280331 0,-0.363128 0.031606,-0.325767 -2.8451336,-3.363188 -1.2462229,-1.315831 -2.2377167,-2.420742 -2.2033197,-2.455357 0.034397,-0.03462 1.6481277,-0.26799 3.5860683,-0.51861 3.3798539,-0.437092 3.5333859,-0.465147 3.7652779,-0.688029 0.133972,-0.128767 0.957295,-1.6660844 1.846745,-3.4482619 0.882746,-1.7687475 1.635042,-3.1858569 1.671767,-3.1491321 0.03673,0.036725 0.667407,1.4029464 1.401516,3.0360479 l 1.334743,2.9692751 -2.009,6.02056 -2.008999,6.02056 -1.667154,0.863796 c -0.916935,0.475089 -2.2456908,1.166256 -2.9527916,1.535926 -1.1784836,0.616108 -1.2812282,0.654176 -1.2327295,0.456744 z"
           id="path1514" />
      </g>
    </g>
  </g>
</svg>
