<?xml version="1.0" encoding="UTF-8" standalone="no"?>
<svg
   xmlns:dc="http://purl.org/dc/elements/1.1/"
   xmlns:cc="http://creativecommons.org/ns#"
   xmlns:rdf="http://www.w3.org/1999/02/22-rdf-syntax-ns#"
   xmlns:svg="http://www.w3.org/2000/svg"
   xmlns="http://www.w3.org/2000/svg"
   xmlns:sodipodi="http://sodipodi.sourceforge.net/DTD/sodipodi-0.dtd"
   xmlns:inkscape="http://www.inkscape.org/namespaces/inkscape"
   id="Layer_1"
   style="enable-background:new 0 0 24 24;"
   version="1.1"
   viewBox="0 0 24 24"
   xml:space="preserve"
   sodipodi:docname="linkedin.svg"
   inkscape:version="1.0.1 (3bc2e813f5, 2020-09-07)"><metadata
     id="metadata994"><rdf:RDF><cc:Work
         rdf:about=""><dc:format>image/svg+xml</dc:format><dc:type
           rdf:resource="http://purl.org/dc/dcmitype/StillImage" /></cc:Work></rdf:RDF></metadata><defs
     id="defs992" /><sodipodi:namedview
     pagecolor="#ffffff"
     bordercolor="#666666"
     borderopacity="1"
     objecttolerance="10"
     gridtolerance="10"
     guidetolerance="10"
     inkscape:pageopacity="0"
     inkscape:pageshadow="2"
     inkscape:window-width="1600"
     inkscape:window-height="836"
     id="namedview990"
     showgrid="false"
     inkscape:zoom="26.5"
     inkscape:cx="12"
     inkscape:cy="13.509434"
     inkscape:window-x="0"
     inkscape:window-y="0"
     inkscape:window-maximized="1"
     inkscape:current-layer="Layer_1"
     inkscape:document-rotation="0" /><g
     id="g2156"
     transform="translate(-2e-7,3.5285e-4)"><path
       d="m 3.9042641,6.6024896 c -1.4878164,0 -2.6985787,-1.2107623 -2.6985787,-2.6985787 0,-1.4878164 1.2107623,-2.6985786 2.6985787,-2.6985786 1.4878163,0 2.6985786,1.2107622 2.6985786,2.6985786 0,1.4878164 -1.2107623,2.6985787 -2.6985786,2.6985787 z m 0,-4.4976311 c -0.9921775,0 -1.7990525,0.806875 -1.7990525,1.7990524 0,0.9921774 0.806875,1.7990525 1.7990525,1.7990525 0.9921774,0 1.7990524,-0.8068751 1.7990524,-1.7990525 0,-0.9921774 -0.806875,-1.7990524 -1.7990524,-1.7990524 z"
       id="path945"
       style="fill:#808080;fill-opacity:1;stroke:#808080;stroke-width:0.900003;stroke-miterlimit:4;stroke-dasharray:none;stroke-opacity:1" /><path
       d="M 6.1530796,22.793962 H 1.6554485 c -0.2482692,0 -0.4497631,-0.201494 -0.4497631,-0.449764 V 8.8513051 c 0,-0.2482692 0.2014939,-0.4497631 0.4497631,-0.4497631 h 4.4976311 c 0.2482692,0 0.4497631,0.2014939 0.4497631,0.4497631 V 22.344198 c 0,0.249169 -0.2014939,0.449764 -0.4497631,0.449764 z M 2.1052116,21.894435 H 5.7033165 V 9.3010682 H 2.1052116 Z"
       id="path949"
       style="fill:#808080;fill-opacity:1;stroke:#808080;stroke-width:0.900003;stroke-miterlimit:4;stroke-dasharray:none;stroke-opacity:1" /><path
       d="M 22.344552,22.793962 H 17.84692 c -0.248269,0 -0.449763,-0.201494 -0.449763,-0.449764 v -8.095736 c 0,-1.020962 -0.425476,-1.787358 -1.168484,-2.101293 -0.767296,-0.325628 -1.703703,-0.125933 -2.429621,0.500137 v 9.696892 c 0,0.24827 -0.201493,0.449764 -0.449763,0.449764 H 8.8516583 c -0.2482693,0 -0.4497631,-0.201494 -0.4497631,-0.449764 V 8.8513051 c 0,-0.2482692 0.2014938,-0.4497631 0.4497631,-0.4497631 h 4.4976307 c 0.20959,0 0.385897,0.1439242 0.435371,0.3373223 1.44284,-1.0380532 3.846374,-1.615549 5.768662,-0.9570959 1.450936,0.497438 3.18972,1.8647179 3.240993,5.5617706 v 9.001559 c 0,0.248269 -0.201494,0.448864 -0.449763,0.448864 z m -4.047868,-0.899527 h 3.598104 v -8.545499 c -0.03418,-2.50518 -0.945402,-4.1387199 -2.632913,-4.7162157 -2.095896,-0.717822 -4.736905,0.3661071 -5.56177,1.3987637 -0.119637,0.15022 -0.321131,0.205991 -0.500137,0.143924 -0.179905,-0.06297 -0.300442,-0.2329776 -0.300442,-0.4245767 V 9.3010682 H 9.3014214 V 21.894435 H 12.899526 V 12.44941 c 0,-0.121436 0.04947,-0.238374 0.135829,-0.32203 1.00567,-0.976886 2.399036,-1.29172 3.543233,-0.808674 1.092025,0.462356 1.718096,1.530094 1.717196,2.929756 v 7.645973 z"
       id="path953"
       style="fill:#808080;fill-opacity:1;stroke:#808080;stroke-width:0.900003;stroke-miterlimit:4;stroke-dasharray:none;stroke-opacity:1" /><g
       id="g959"
       transform="matrix(0.89952622,0,0,0.89952622,1.2056854,2.0094756e-4)"
       style="fill:#808080;fill-opacity:1;stroke:#808080;stroke-opacity:1" /><g
       id="g961"
       transform="matrix(0.89952622,0,0,0.89952622,1.2056854,2.0094756e-4)"
       style="fill:#808080;fill-opacity:1;stroke:#808080;stroke-opacity:1" /><g
       id="g963"
       transform="matrix(0.89952622,0,0,0.89952622,1.2056854,2.0094756e-4)"
       style="fill:#808080;fill-opacity:1;stroke:#808080;stroke-opacity:1" /><g
       id="g965"
       transform="matrix(0.89952622,0,0,0.89952622,1.2056854,2.0094756e-4)"
       style="fill:#808080;fill-opacity:1;stroke:#808080;stroke-opacity:1" /><g
       id="g967"
       transform="matrix(0.89952622,0,0,0.89952622,1.2056854,2.0094756e-4)"
       style="fill:#808080;fill-opacity:1;stroke:#808080;stroke-opacity:1" /><g
       id="g969"
       transform="matrix(0.89952622,0,0,0.89952622,1.2056854,2.0094756e-4)"
       style="fill:#808080;fill-opacity:1;stroke:#808080;stroke-opacity:1" /><g
       id="g971"
       transform="matrix(0.89952622,0,0,0.89952622,1.2056854,2.0094756e-4)"
       style="fill:#808080;fill-opacity:1;stroke:#808080;stroke-opacity:1" /><g
       id="g973"
       transform="matrix(0.89952622,0,0,0.89952622,1.2056854,2.0094756e-4)"
       style="fill:#808080;fill-opacity:1;stroke:#808080;stroke-opacity:1" /><g
       id="g975"
       transform="matrix(0.89952622,0,0,0.89952622,1.2056854,2.0094756e-4)"
       style="fill:#808080;fill-opacity:1;stroke:#808080;stroke-opacity:1" /><g
       id="g977"
       transform="matrix(0.89952622,0,0,0.89952622,1.2056854,2.0094756e-4)"
       style="fill:#808080;fill-opacity:1;stroke:#808080;stroke-opacity:1" /><g
       id="g979"
       transform="matrix(0.89952622,0,0,0.89952622,1.2056854,2.0094756e-4)"
       style="fill:#808080;fill-opacity:1;stroke:#808080;stroke-opacity:1" /><g
       id="g981"
       transform="matrix(0.89952622,0,0,0.89952622,1.2056854,2.0094756e-4)"
       style="fill:#808080;fill-opacity:1;stroke:#808080;stroke-opacity:1" /><g
       id="g983"
       transform="matrix(0.89952622,0,0,0.89952622,1.2056854,2.0094756e-4)"
       style="fill:#808080;fill-opacity:1;stroke:#808080;stroke-opacity:1" /><g
       id="g985"
       transform="matrix(0.89952622,0,0,0.89952622,1.2056854,2.0094756e-4)"
       style="fill:#808080;fill-opacity:1;stroke:#808080;stroke-opacity:1" /><g
       id="g987"
       transform="matrix(0.89952622,0,0,0.89952622,1.2056854,2.0094756e-4)"
       style="fill:#808080;fill-opacity:1;stroke:#808080;stroke-opacity:1" /></g></svg>
