<?xml version="1.0" encoding="UTF-8" standalone="no"?>
<svg
   xmlns:dc="http://purl.org/dc/elements/1.1/"
   xmlns:cc="http://creativecommons.org/ns#"
   xmlns:rdf="http://www.w3.org/1999/02/22-rdf-syntax-ns#"
   xmlns:svg="http://www.w3.org/2000/svg"
   xmlns="http://www.w3.org/2000/svg"
   xmlns:sodipodi="http://sodipodi.sourceforge.net/DTD/sodipodi-0.dtd"
   xmlns:inkscape="http://www.inkscape.org/namespaces/inkscape"
   version="1.1"
   x="0px"
   y="0px"
   viewBox="0 0 30 30"
   enable-background="new 0 0 95 95"
   xml:space="preserve"
   id="svg14"
   sodipodi:docname="magnifier.svg"
   width="30"
   height="30"
   inkscape:version="1.0.1 (3bc2e813f5, 2020-09-07)"><metadata
     id="metadata20"><rdf:RDF><cc:Work
         rdf:about=""><dc:format>image/svg+xml</dc:format><dc:type
           rdf:resource="http://purl.org/dc/dcmitype/StillImage" /><dc:title></dc:title></cc:Work></rdf:RDF></metadata><defs
     id="defs18" /><sodipodi:namedview
     pagecolor="#ffffff"
     bordercolor="#666666"
     borderopacity="1"
     objecttolerance="10"
     gridtolerance="10"
     guidetolerance="10"
     inkscape:pageopacity="0"
     inkscape:pageshadow="2"
     inkscape:window-width="1600"
     inkscape:window-height="836"
     id="namedview16"
     showgrid="false"
     inkscape:zoom="8.8757895"
     inkscape:cx="26.876743"
     inkscape:cy="17.878185"
     inkscape:window-x="0"
     inkscape:window-y="0"
     inkscape:window-maximized="1"
     inkscape:current-layer="svg14"
     inkscape:document-rotation="0" /><path
     id="path896"
     style="color:#000000;font-style:normal;font-variant:normal;font-weight:normal;font-stretch:normal;font-size:medium;line-height:normal;font-family:sans-serif;font-variant-ligatures:normal;font-variant-position:normal;font-variant-caps:normal;font-variant-numeric:normal;font-variant-alternates:normal;font-variant-east-asian:normal;font-feature-settings:normal;font-variation-settings:normal;text-indent:0;text-align:start;text-decoration:none;text-decoration-line:none;text-decoration-style:solid;text-decoration-color:#000000;letter-spacing:normal;word-spacing:normal;text-transform:none;writing-mode:lr-tb;direction:ltr;text-orientation:mixed;dominant-baseline:auto;baseline-shift:baseline;text-anchor:start;white-space:normal;shape-padding:0;shape-margin:0;inline-size:0;clip-rule:nonzero;display:inline;overflow:visible;visibility:visible;opacity:1;isolation:auto;mix-blend-mode:normal;color-interpolation:sRGB;color-interpolation-filters:linearRGB;solid-color:#000000;solid-opacity:1;vector-effect:none;fill:#808080;fill-opacity:1;fill-rule:nonzero;stroke:none;stroke-width:1.99999;stroke-linecap:round;stroke-linejoin:round;stroke-miterlimit:4;stroke-dasharray:none;stroke-dashoffset:0;stroke-opacity:1;paint-order:markers stroke fill;color-rendering:auto;image-rendering:auto;shape-rendering:auto;text-rendering:auto;enable-background:accumulate;stop-color:#000000;stop-opacity:1"
     d="m 16.139783,6.220083 c -4.214969,0 -7.6401342,2.4786993 -7.6401342,5.528957 0,3.050259 3.4251652,5.528957 7.6401342,5.528957 4.214969,0 7.640134,-2.478698 7.640134,-5.528957 0,-3.0502577 -3.425165,-5.528957 -7.640134,-5.528957 z m 0,0.5383845 c 3.812905,0 6.896173,2.2312778 6.896173,4.9905725 0,2.759295 -3.083268,4.990573 -6.896173,4.990573 -3.812904,0 -6.8961732,-2.231278 -6.896172,-4.990573 0,-0.172456 0.012081,-0.342604 0.0356,-0.510519 0.3527021,-2.5187242 3.285975,-4.4800535 6.860572,-4.4800535 z m 0,1.3191474 c -2.797638,0 -5.073322,1.6468514 -5.073322,3.6714251 0,2.024574 2.275684,3.671425 5.073322,3.671425 2.797637,0 5.073323,-1.646851 5.073323,-3.671425 0,-2.0245737 -2.275686,-3.6714251 -5.073323,-3.6714251 z m 0,0.5383845 c 2.395571,0 4.32936,1.3994306 4.32936,3.1330406 0,1.73361 -1.933789,3.133041 -4.32936,3.133041 -2.39557,0 -4.329361,-1.399431 -4.329361,-3.133041 0,-1.73361 1.933791,-3.1330406 4.329361,-3.1330406 z M 10.544816,15.968839 6.5336732,21.19443 c -0.6075188,0.791582 -0.3051513,1.839121 0.6720359,2.331247 0.9771872,0.49213 2.2695184,0.247943 2.8770369,-0.543642 l 4.202945,-5.47638 C 14.005332,17.461591 13.73271,17.40362 13.465446,17.336884 L 9.3983599,22.637132 C 9.0193414,23.130983 8.241099,23.278021 7.631452,22.970994 7.0218038,22.663965 6.8397668,22.033184 7.2187865,21.539332 l 3.9464815,-5.141993 c -0.219319,-0.133256 -0.42434,-0.27766 -0.620452,-0.4285 z" /></svg>
