<?xml version="1.0" encoding="UTF-8" standalone="no"?>
<svg
   xmlns:dc="http://purl.org/dc/elements/1.1/"
   xmlns:cc="http://creativecommons.org/ns#"
   xmlns:rdf="http://www.w3.org/1999/02/22-rdf-syntax-ns#"
   xmlns:svg="http://www.w3.org/2000/svg"
   xmlns="http://www.w3.org/2000/svg"
   xmlns:sodipodi="http://sodipodi.sourceforge.net/DTD/sodipodi-0.dtd"
   xmlns:inkscape="http://www.inkscape.org/namespaces/inkscape"
   version="1.1"
   x="0px"
   y="0px"
   viewBox="0 0 30 30"
   xml:space="preserve"
   id="svg12"
   sodipodi:docname="phone.svg"
   width="30"
   height="30"
   inkscape:version="1.0.1 (3bc2e813f5, 2020-09-07)"><metadata
     id="metadata18"><rdf:RDF><cc:Work
         rdf:about=""><dc:format>image/svg+xml</dc:format><dc:type
           rdf:resource="http://purl.org/dc/dcmitype/StillImage" /><dc:title /></cc:Work></rdf:RDF></metadata><defs
     id="defs16" /><sodipodi:namedview
     pagecolor="#ffffff"
     bordercolor="#666666"
     borderopacity="1"
     objecttolerance="10"
     gridtolerance="10"
     guidetolerance="10"
     inkscape:pageopacity="0"
     inkscape:pageshadow="2"
     inkscape:window-width="1600"
     inkscape:window-height="836"
     id="namedview14"
     showgrid="false"
     inkscape:pagecheckerboard="true"
     inkscape:zoom="13.175"
     inkscape:cx="16"
     inkscape:cy="20"
     inkscape:window-x="0"
     inkscape:window-y="0"
     inkscape:window-maximized="1"
     inkscape:current-layer="svg12"
     inkscape:document-rotation="0" /><g
     id="g6"
     transform="matrix(0.8548924,0,0,0.8548924,1.319634,1.3233246)"
     style="stroke-width:1.16973785;stroke-miterlimit:4;stroke-dasharray:none;stroke:none;stroke-opacity:1;fill:#808080;fill-opacity:1"><g
       id="g4"
       style="stroke-width:1.16973785;stroke-miterlimit:4;stroke-dasharray:none;stroke:none;stroke-opacity:1;fill:#808080;fill-opacity:1"><path
         d="m 23.448242,30.996094 c -0.978027,0 -1.96582,-0.124024 -2.952637,-0.372071 C 13.35791,28.827148 3.1728516,18.641602 1.3759766,11.503906 0.6503906,8.6240234 0.9907227,5.7265625 2.359375,3.1269531 2.9550781,1.9951172 4.019043,1.2363281 5.2788086,1.0449218 6.5263672,0.8583984 7.7587891,1.2597656 8.6542969,2.1552734 l 2.9194341,2.9199219 c 1.149902,1.1494141 1.48291,2.9072266 0.828613,4.3730469 -0.342774,0.7695318 -0.779785,1.4228518 -1.299805,1.9414068 -0.356445,0.357421 -0.427734,0.947265 -0.211426,1.753906 0.786133,2.935547 5.029297,7.178711 7.965332,7.96582 0.807617,0.21582 1.396973,0.145508 1.753418,-0.211914 0.520508,-0.520508 1.174317,-0.958008 1.942871,-1.299805 1.465332,-0.65625 3.222168,-0.321289 4.372559,0.828125 l 2.919434,2.919922 v 0 c 0.895507,0.895508 1.299804,2.125977 1.110351,3.375977 -0.190918,1.258789 -0.950195,2.323242 -2.082031,2.918945 -1.709473,0.900391 -3.547363,1.355469 -5.424805,1.355469 z M 5.8754883,3 C 5.7773433,3 5.6782227,3.00781 5.5786133,3.022461 4.9541016,3.117188 4.4257813,3.4951173 4.1289063,4.0585938 2.9775391,6.2460938 2.7036133,8.5869141 3.3154297,11.015625 4.9428711,17.479492 14.52002,27.057617 20.983887,28.68457 c 2.429199,0.612305 4.769531,0.336914 6.957519,-0.813476 0.563965,-0.296875 0.941406,-0.825196 1.036133,-1.450196 0.09326,-0.614257 -0.105957,-1.219726 -0.546875,-1.661132 L 25.51123,21.839844 c -0.567871,-0.566407 -1.428711,-0.733399 -2.144531,-0.416016 -0.544434,0.243164 -0.996094,0.541016 -1.342773,0.887695 -0.617676,0.617188 -1.757813,1.245118 -3.685547,0.729493 C 14.674316,22.05957 9.9409179,17.325195 8.9589843,13.661133 8.442871,11.734375 9.071289,10.592773 9.6889648,9.9755859 10.034668,9.6298828 10.333008,9.1787109 10.575684,8.633789 10.89502,7.9189452 10.727539,7.0576171 10.159668,6.4892577 L 7.2402344,3.5693359 C 6.8706055,3.2001953 6.3852539,3 5.8754883,3 Z"
         id="path2"
         style="stroke-width:1.16973785;stroke-miterlimit:4;stroke-dasharray:none;stroke:none;stroke-opacity:1;fill:#808080;fill-opacity:1" /></g></g><text
     x="0"
     y="47"
     fill="#000000"
     font-size="5px"
     font-weight="bold"
     font-family="'Helvetica Neue', Helvetica, Arial-Unicode, Arial, Sans-serif"
     id="text8">Created by Royyan Wijaya</text><text
     x="0"
     y="52"
     fill="#000000"
     font-size="5px"
     font-weight="bold"
     font-family="'Helvetica Neue', Helvetica, Arial-Unicode, Arial, Sans-serif"
     id="text10">from the Noun Project</text></svg>
